<svg width="42" height="41" viewBox="0 0 42 41" fill="none" xmlns="http://www.w3.org/2000/svg">
<path d="M38.6 3.3H24.2C23.5778 3.3 23.0222 3.52222 22.5333 3.96666C22.0444 4.41111 21.8 4.98889 21.8 5.7V14.3667L12.4667 16.9H3.66667C2.95556 16.9 2.33333 17.1667 1.8 17.7C1.26667 18.2333 1 18.8556 1 19.5667V25.1667C1 25.8778 1.26667 26.4778 1.8 26.9667C2.33333 27.4556 2.95556 27.7 3.66667 27.7H4.86667L5.8 35.4333C5.97778 36.4111 6.51111 37.0778 7.4 37.4333C7.84444 37.6111 8.33333 37.6778 8.86667 37.6333C9.4 37.5889 9.84445 37.4333 10.2 37.1667C11 36.5444 11.3111 35.7 11.1333 34.6333L10.2 27.7H12.4667L32.0667 33.3C32.3333 33.3 32.5778 33.2333 32.8 33.1C33.0222 32.9667 33.1333 32.7667 33.1333 32.5V17.4333H38.6C39.3111 17.4333 39.8889 17.1889 40.3333 16.7C40.7778 16.2111 41 15.6556 41 15.0333V5.7C41 4.98889 40.7778 4.41111 40.3333 3.96666C39.8889 3.52222 39.3111 3.3 38.6 3.3ZM2.6 25.1667V19.5667C2.6 19.3 2.68889 19.0556 2.86667 18.8333C3.04444 18.6111 3.31111 18.5 3.66667 18.5H11.8V26.2333H3.66667C3.31111 26.2333 3.04444 26.1222 2.86667 25.9C2.68889 25.6778 2.6 25.4333 2.6 25.1667ZM9.66667 34.9C9.66667 35.3444 9.51111 35.6778 9.2 35.9C8.88889 36.1222 8.51111 36.1667 8.06667 36.0333C7.62222 35.9 7.4 35.6111 7.4 35.1667L6.46667 27.7H8.73333L9.66667 34.9ZM31.5333 31.4333L13.4 26.3667V18.3667L22.0667 15.8333C22.2444 16.2778 22.5333 16.6556 22.9333 16.9667C23.3333 17.2778 23.7556 17.4333 24.2 17.4333H26.2L27.5333 18.7667C27.7111 18.8556 27.9111 18.9 28.1333 18.9C28.3556 18.9 28.5111 18.8556 28.6 18.7667L29.9333 17.4333H31.5333V31.4333ZM39.4 15.0333C39.4 15.2111 39.3333 15.3889 39.2 15.5667C39.0667 15.7444 38.8667 15.8333 38.6 15.8333H29.6667C29.4889 15.8333 29.3111 15.9222 29.1333 16.1L28.0667 17.0333L27.1333 16.1C26.9556 15.9222 26.7778 15.8333 26.6 15.8333H24.2C24.0222 15.8333 23.8444 15.7444 23.6667 15.5667C23.4889 15.3889 23.4 15.2111 23.4 15.0333V5.7C23.4 5.43333 23.4889 5.23333 23.6667 5.1C23.8444 4.96666 24.0222 4.9 24.2 4.9H38.6C38.8667 4.9 39.0667 4.96666 39.2 5.1C39.3333 5.23333 39.4 5.43333 39.4 5.7V15.0333ZM36.0667 6.5H26.7333C26.3778 6.5 26.1333 6.61111 26 6.83333C25.8667 7.05555 25.8667 7.3 26 7.56667C26.1333 7.83333 26.3778 7.96667 26.7333 7.96667H36.0667C36.4222 7.96667 36.6667 7.83333 36.8 7.56667C36.9333 7.3 36.9333 7.05555 36.8 6.83333C36.6667 6.61111 36.4222 6.5 36.0667 6.5ZM36.0667 9.56667H26.7333C26.3778 9.56667 26.1333 9.7 26 9.96667C25.8667 10.2333 25.8667 10.5 26 10.7667C26.1333 11.0333 26.3778 11.1667 26.7333 11.1667H36.0667C36.4222 11.1667 36.6667 11.0333 36.8 10.7667C36.9333 10.5 36.9333 10.2333 36.8 9.96667C36.6667 9.7 36.4222 9.56667 36.0667 9.56667ZM31.4 12.6333H26.7333C26.3778 12.7222 26.1333 12.8778 26 13.1C25.8667 13.3222 25.8667 13.5667 26 13.8333C26.1333 14.1 26.3778 14.2333 26.7333 14.2333H31.4C31.7556 14.2333 32 14.1 32.1333 13.8333C32.2667 13.5667 32.2667 13.3222 32.1333 13.1C32 12.8778 31.7556 12.7222 31.4 12.6333Z" fill="white"/>
</svg>
